<svg xmlns="http://www.w3.org/2000/svg" viewBox="0 0 256 256" enable-background="new 0 0 256 256"><style type="text/css">.st0{fill:#BC9D6D;}</style><path class="st0" d="M48.6 241.4c2.8.3 5.2-1.7 5.8-4.3-.3 3 1.9 5.6 4.9 5.8 3 .3 5.6-1.9 5.9-4.9.3-3.2 1-11.2 1.4-14.2h.2c19.2 1.6 41-12.7 45.2-43.2 1.9-13.2-1.5-26.3-9.5-36.9-5.4-7.2-12.6-12.6-20.7-16 .6-1.2 1-2.5 1.2-3.8.5-3.5-.4-6.9-2.5-9.7-2.1-2.8-5.2-4.6-8.7-5.1-6.5-.9-12.7 3.1-14.5 9.4-.2.6-.3 1.2-.4 1.8-.2 1.4-.1 2.7.1 4-1.4.2-2.8.4-4.2.7l-3.4-9.4c3.5-2.4 6.1-6 7.3-10.2.6-2.1.8-4.2.7-6.4l-1.6-23.8c-.1-2.2-.7-4.4-1.6-6.3l12.8-10.5.9.5c4.5 2.2 9.6 2.6 14.4.9l22.7-7.8c5.9-2 10.4-6.7 12.1-12.7v-.1l11.2-.2c1.8 4.6 5.4 8.4 10.3 10.4l22.1 9.1c4.6 1.9 9.6 1.9 14.2.1l5 6.3c-1 1.6-1.9 3.3-2.4 5.2-.7 2.5-.9 5.1-.5 7.7l3.2 23.7c1 7.1 5.8 12.7 12 15.1l-.3 7.8c-16.6.5-32.6 9.3-41.5 24.7-2.8 4.9-4.9 9.7-6.2 14.4-5.9 20.8 2 38.8 15.1 47.5l.2.1c-1.5 2.5-5.9 9.4-7.6 12.1-1.6 2.5-.8 5.9 1.7 7.4 2.5 1.6 5.9.8 7.4-1.7-.2.3-.4.7-.5 1.1-.6 2.2.2 4.7 2.3 6 2.5 1.6 5.9.8 7.4-1.7.7-1 6-9.5 7.8-12.5.1 0 .2 0 .2.1 17.2 8.7 42.7 3.6 58.2-23 11.6-20 7.6-44.8-8.1-60.4 1-.9 1.9-1.9 2.6-3.1.5-.9 1-2 1.3-3 1.7-5.8-.8-11.9-6-15-6.3-3.6-14.3-1.5-18 4.8-.5.9-1 2-1.3 3l-.2.8c-1.4-.4-2.7-.7-4.1-1l.3-8c6.7-1.5 12.1-6.5 14-13.2.7-2.5.9-5.1.5-7.7l-3.2-23.7c-1.4-10.3-10.9-17.5-21.3-16.1-1.7.2-3.4.7-4.9 1.4l-4.8-6.1c.8-1.1 1.4-2.3 2-3.6 4-9.8-.7-20.7-10.3-24.6l-21.9-8.9c-4.7-1.9-9.8-1.9-14.4 0-4.7 1.9-8.3 5.6-10.2 10.2-.3.7-.5 1.3-.7 2l-.3 1.4-10.5.2-.1-.3c-1.6-4.8-5-8.6-9.5-10.8-4.5-2.2-9.6-2.6-14.4-.9l-22.7 7.7c-5.9 2-10.4 6.7-12.1 12.7-1.1 3.7-1 7.6.3 11.2.3.9.7 1.7 1.1 2.6l-12.2 10.1c-3.4-2.2-7.4-3.3-11.5-3-7.9.5-14.7 6-16.9 13.7-.6 2.1-.8 4.2-.7 6.4l1.6 23.8c.7 10.2 9.3 17.9 19.4 17.6l3.4 9.2c-13.2 5.9-23.6 17.3-27.7 31.8-.6 2.2-1.1 4.4-1.4 6.7-4.3 30.4 12.6 50.2 31.5 54 .1 0 .2 0 .2.1-.4 3.5-1.3 13.5-1.4 14.7-.3 2.9 1.8 5.5 4.8 5.8zm178.7-47.8c-9.1 15.7-27.2 27.3-44 18.8-5.2-2.6-11.2-1.2-13.9 3.3 2.5-4.6.8-10.5-4-13.7-15.7-10.4-14.7-31.7-5.5-47.5 10.8-18.6 34.7-24.9 53.3-14.2 18.5 10.8 24.8 34.8 14.1 53.3zm-9.6-65.8c.7-1.1 2.1-1.5 3.2-.9.9.5 1.4 1.6 1.1 2.7-.1.2-.1.4-.2.5-.6 1.1-2.1 1.5-3.2.9-1.2-.6-1.6-2.1-.9-3.2zm-14-53.7l3.2 23.7c.2 1.1.1 2.2-.2 3.3-.5 1.9-1.7 3.4-3.2 4.5l.3-7.7c.1-3-2.2-5.5-5.2-5.6-2.5-.1-4.7 1.6-5.4 3.9-.1.4-.2.9-.2 1.3l-.2 6.4c-.9-1.1-1.6-2.5-1.8-4l-3.2-23.7c-.1-.6-.1-1.1-.1-1.7l3.7 4.7c1.8 2.3 5.2 2.7 7.6.9 2.3-1.8 2.7-5.2.9-7.6l-4.3-5.5c3.9.1 7.5 3 8.1 7.1zm-61-49.6c2-.8 4.2-.8 6.2 0l22.1 9.1c3.5 1.4 5.4 5 4.9 8.7l-2.6-3.3c-1.8-2.3-5.2-2.7-7.6-.9-.9.7-1.5 1.7-1.8 2.8-.5 1.6-.2 3.4 1 4.8l2.7 3.4c-.9 0-1.8-.2-2.6-.6l-22.1-9.1c-.5-.2-.9-.4-1.3-.7l4.1-.1c3-.1 5.3-2.5 5.3-5.5-.1-3-2.5-5.3-5.5-5.3l-6.4.1c.6-1.5 1.9-2.7 3.6-3.4zm-69 9.7l22.6-7.7c2-.7 4.2-.6 6.2.4.9.4 1.7 1 2.3 1.8l-4.3.1c-2.4 0-4.5 1.7-5.1 3.9-.1.5-.2 1-.2 1.6.1 3 2.5 5.3 5.5 5.3l4.2-.1c-.9 1-2.1 1.9-3.4 2.3l-22.6 7.7c-.5.2-1.1.3-1.6.4l3.9-3.2c2.3-1.9 2.6-5.3.7-7.6-1.9-2.3-5.3-2.6-7.6-.7l-6 4.9c-.5-3.9 1.8-7.9 5.4-9.1zm-43.2 66.5l-1.5-23.8c-.3-4.4 3.2-8.3 7.5-8.6h1.3l-3.6 3c-.9.7-1.5 1.7-1.8 2.7-.5 1.6-.1 3.5 1 4.9 1.9 2.3 5.3 2.6 7.6.7l4-3.3 1.5 23.3c.1.9 0 1.9-.3 2.7-.2.8-.6 1.5-1 2.1l-1.9-5.2c-1-2.8-4.1-4.2-6.9-3.2-1.7.6-2.9 2-3.3 3.6-.3 1.1-.3 2.2.1 3.3l1.6 4.3c-2.3-1.1-4.1-3.6-4.3-6.5zm37.6 22.8c-.2-.3-.6-.9-.4-1.7.2-1.3 1.4-2.2 2.7-2 .8.1 1.3.6 1.6.9.2.3.6.9.4 1.7 0 .1 0 .2-.1.3-.3 1.1-1.4 1.8-2.6 1.7-.9-.1-1.4-.6-1.6-.9zm-44 44.7c3-21.3 22.8-36.2 44-33.2 10.3 1.5 19.4 6.8 25.7 15.2 6.3 8.3 8.9 18.6 7.5 28.9-3.4 23.8-19.5 35.1-33.7 33.9-5.7-.5-10.8 3.1-11.6 8.2.6-5.1-3.3-10-8.9-11.2-18.5-3.5-25.6-23.7-23-41.8z" id="Your_Icon_2_"/></svg>