<svg xmlns="http://www.w3.org/2000/svg" viewBox="0 0 256 256" enable-background="new 0 0 256 256"><style type="text/css">.st0{fill:#BC9D6D;}</style><path class="st0" d="M189.9 138.7c11.5-3.5 23.5-8.1 34.9-14.4 18.4-10.7 27.8.4 21 17.2-5.8 15.9-36.8 45.5-63.8 52.3-10.3-7.3-30.6-12.3-54-12.4-23.4.1-43.7 5.1-54 12.4-27-6.8-57.9-36.4-63.8-52.3-6.8-16.8 2.6-27.9 21-17.2 11.5 6.3 23.4 11 34.9 14.4 24.7 7.4 47.4 9.3 59.2 9.3h6.5c11.9-.1 34-2.1 58.1-9.3z"/><path class="st0" d="M156.5 63.9c9.6 4.8 25.3 50.1 31.3 68.6-23.2 6.7-44.5 8.6-56 8.7h-6.5c-11.6 0-33.3-1.7-57.2-8.7 6.1-18.5 21.7-63.8 31.4-68.7 11-5.5 20.5 3.6 28.1 4.5h-1.5c.6.1 1.2.1 1.8 0 .6.1 1.3 0 1.9 0h-1.5c7.7-.8 17.2-9.9 28.2-4.4zm-3.8 35.2c0-2-1.6-3.6-3.6-3.6-1.8 0-3.4 1.4-3.6 3.1l-11.2-1.6-4.9-10c1.3-.5 2.3-1.8 2.3-3.4 0-2-1.6-3.6-3.6-3.6s-3.6 1.6-3.6 3.6c0 1.5 1 2.8 2.3 3.4l-4.9 10-11.2 1.6c-.2-1.8-1.8-3.2-3.6-3.2-2 0-3.6 1.6-3.6 3.6s1.6 3.6 3.6 3.6c1.2 0 2.3-.6 3-1.6l8 7.8-2 11.7c-.4-.2-.9-.3-1.4-.3-2 0-3.6 1.6-3.6 3.6s1.6 3.6 3.6 3.6 3.6-1.6 3.6-3.6c0-.8-.2-1.5-.6-2l10.6-5.6 10.6 5.6c-.4.6-.6 1.3-.6 2.1 0 2 1.6 3.6 3.6 3.6s3.6-1.6 3.6-3.6-1.6-3.6-3.6-3.6c-.5 0-1 .1-1.4.3l-2-11.7 8-7.8c.7.9 1.7 1.5 3 1.5 1.6.1 3.2-1.5 3.2-3.5z" id="XMLID_1_"/></svg>