<?xml version="1.0" encoding="utf-8"?>
<!-- Generator: Adobe Illustrator 18.1.1, SVG Export Plug-In . SVG Version: 6.00 Build 0)  -->
<svg version="1.1" id="Layer_1" xmlns="http://www.w3.org/2000/svg" xmlns:xlink="http://www.w3.org/1999/xlink" x="0px" y="0px"
	 viewBox="0 0 256 256" enable-background="new 0 0 256 256" xml:space="preserve">
<g>
	<g>
		<g id="Your_Icon_8_">
			<path fill="#87714F" d="M224.1,174.4c-1.7,0-3.2,0.6-4.5,1.4L191.1,128l28.4-47.8c1.4,0.8,2.8,1.4,4.5,1.4c5,0,9-4,9-9
				c0-5-4.1-9-9-9c-5,0-9,4-9,9c0,0,0,0.1,0,0.1l-55.5,0.7l-27.2-48.5c2.7-1.6,4.7-4.4,4.7-7.8c0-5-4-9-9-9c-5,0-9,4-9,9
				c0,3.4,1.9,6.2,4.7,7.8L96.4,73.3l-55.5-0.7c0,0,0-0.1,0-0.1c0-5-4.1-9-9-9c-5,0-9,4-9,9c0,5,4,9,9,9c1.7,0,3.2-0.6,4.5-1.4
				L64.9,128l-28.4,47.8c-1.4-0.8-2.9-1.4-4.5-1.4c-5,0-9,4-9,9c0,5,4,9,9,9c5,0,9-4,9-9c0,0,0-0.1,0-0.1l55.5-0.7l27.2,48.5
				c-2.7,1.6-4.7,4.4-4.7,7.8c0,5,4,9,9,9c5,0,9-4,9-9c0-3.4-1.9-6.2-4.7-7.8l27.2-48.5l55.5,0.7c0,0,0,0.1,0,0.1c0,5,4,9,9,9
				c5,0,9-4,9-9C233.1,178.5,229,174.4,224.1,174.4z"/>
		</g>
	</g>
</g>
</svg>
