<svg xmlns="http://www.w3.org/2000/svg" viewBox="0 0 1555 256" enable-background="new 0 0 1555 256"><style type="text/css">.st0{fill:#87714F;}</style><path class="st0" d="M214.4 174.8c-1.7 0-3.2.6-4.5 1.4l-28.2-47.6 28.2-47.6c1.3.8 2.8 1.4 4.5 1.4 4.9 0 9-4 9-9s-4-9-9-9-9 4-9 9v.1l-55.2.7-27-48.2c2.7-1.5 4.6-4.4 4.6-7.7 0-5-4-9-9-9-4.9 0-9 4-9 9 0 3.4 1.9 6.2 4.7 7.7l-27 48.2-55.2-.7v-.1c0-5-4-9-9-9s-9 4-9 9 4 9 9 9c1.7 0 3.2-.6 4.5-1.4l28.2 47.6-28.2 47.6c-1.4-.8-2.8-1.4-4.5-1.4-5 0-9 4-9 9s4 9 9 9c4.9 0 9-4 9-9v-.1l55.2-.7 27 48.2c-2.7 1.5-4.7 4.4-4.7 7.7 0 5 4 9 9 9s9-4 9-9c0-3.4-1.9-6.2-4.6-7.7l27-48.2 55.2.7v.1c0 5 4 9 9 9 4.9 0 9-4 9-9s-4-9-9-9z" id="Your_Icon_17_"/><path class="st0" d="M1533.2 174.8c-1.7 0-3.2.6-4.5 1.4l-28.2-47.6 28.2-47.6c1.3.8 2.8 1.4 4.5 1.4 4.9 0 9-4 9-9s-4-9-9-9-9 4-9 9v.1l-55.2.7-27-48.2c2.7-1.5 4.6-4.4 4.6-7.7 0-5-4-9-9-9-4.9 0-9 4-9 9 0 3.4 1.9 6.2 4.7 7.7l-27 48.2-55.2-.7v-.1c0-5-4-9-9-9s-9 4-9 9 4 9 9 9c1.7 0 3.2-.6 4.5-1.4l28.2 47.6-28.2 47.6c-1.4-.8-2.8-1.4-4.5-1.4-5 0-9 4-9 9s4 9 9 9c4.9 0 9-4 9-9v-.1l55.2-.7 27 48.2c-2.7 1.5-4.7 4.4-4.7 7.7 0 5 4 9 9 9s9-4 9-9c0-3.4-1.9-6.2-4.6-7.7l27-48.2 55.2.7v.1c0 5 4 9 9 9 4.9 0 9-4 9-9s-4-9-9-9z" id="Your_Icon_16_"/></svg>